# xmcd CD database file
#
# Track frame offsets:
#	150
#	16389
#	32020
#	52090
#	70446
#	85837
#	108032
#	126868
#	146494
#	160724
#	176537
#	197608
#	214092
#	231439
#	255156
#	271269
#
# Disc length: 3918 seconds
#
# Revision: 0
# Processed by: cddbd v1.5.2PL0 Copyright (c) Steve Scherf et al.
# Submitted via: CDex 1.70beta2
#
DISCID=d80f4c10
DTITLE=Brea - Cdn. - ON - OVM - No Regrets
DYEAR=2007
DGENRE=Country
TTITLE0=If I'm Not Here Tomorrow
TTITLE1=I'm Worth It
TTITLE2=Everyone Told You
TTITLE3=Be Your Fool
TTITLE4=Rockin' Into My Life
TTITLE5=All the Time
TTITLE6=Walk Away
TTITLE7=Just Another Day
TTITLE8=First Day of School
TTITLE9=Miss Mary Jane
TTITLE10=California
TTITLE11=Tension
TTITLE12=What's It Gonna Take
TTITLE13=I Will Be
TTITLE14=Black and Purple
TTITLE15=It's Alright
EXTD=YEAR: 2007
EXTT0=
EXTT1=
EXTT2=
EXTT3=
EXTT4=
EXTT5=
EXTT6=
EXTT7=
EXTT8=
EXTT9=
EXTT10=
EXTT11=
EXTT12=
EXTT13=
EXTT14=
EXTT15=
PLAYORDER=
